<?xml version="1.0" encoding="utf-8"?>
<svg version="1.1" id="Layer_1" xmlns="http://www.w3.org/2000/svg" xmlns:xlink="http://www.w3.org/1999/xlink" x="0px" y="0px" viewBox="0 0 62.91 122.88" style="enable-background:new 0 0 62.91 122.88" xml:space="preserve">
<g>
<path fill="#8D021F" transform="translate(-30, 0)"
d="M54.6,19.66v12.12V44.7v12.92v42.12c0,6.37-2.6,12.15-6.8,16.35c-4.19,4.19-9.98,6.8-16.35,6.8 c-6.37,0-12.15-2.6-16.35-6.8c-4.19-4.19-6.8-9.98-6.8-16.35V19.66H3.42c-0.94,0-1.8-0.38-2.42-1c-0.1-0.1-0.18-0.2-0.26-0.3 C0.28,17.77,0,17.04,0,16.24V3.42c0-0.93,0.38-1.78,1-2.4L1.02,1c0.62-0.62,1.47-1,2.4-1h56.07c0.94,0,1.79,0.38,2.4,1l0.01,0.01 L61.91,1c0.62,0.62,1,1.47,1,2.42v12.82c0,0.94-0.38,1.8-1,2.42c-0.1,0.1-0.21,0.19-0.33,0.28c-0.58,0.45-1.31,0.72-2.09,0.72H54.6 L54.6,19.66z M49.26,60.29h-7.45c-1.47,0-2.67-1.2-2.67-2.67c0-1.47,1.2-2.67,2.67-2.67h7.45v-7.58H35.93 c-1.47,0-2.67-1.2-2.67-2.67c0-1.47,1.2-2.67,2.67-2.67h13.32v-7.58h-7.45c-1.47,0-2.67-1.2-2.67-2.67c0-1.47,1.2-2.67,2.67-2.67 h7.45V16.99c0-1.47,1.2-2.67,2.67-2.67h5.64V5.34H5.34v8.98h5.64c1.47,0,2.67,1.2,2.67,2.67v82.75c0,4.89,2,9.34,5.23,12.57 c3.23,3.23,7.68,5.23,12.57,5.23s9.34-2,12.57-5.23c3.23-3.23,5.23-7.68,5.23-12.57V60.29L49.26,60.29z M43.68,68.62v28.84 c0,6.73-5.5,12.23-12.23,12.23l0,0c-6.73,0-12.23-5.5-12.23-12.23V68.62H43.68L43.68,68.62z"/></g>
<g>
<path fill="#000080" transform="translate(40, 0)"
d="M54.6,19.66v12.12V44.7v12.92v42.12c0,6.37-2.6,12.15-6.8,16.35c-4.19,4.19-9.98,6.8-16.35,6.8 c-6.37,0-12.15-2.6-16.35-6.8c-4.19-4.19-6.8-9.98-6.8-16.35V19.66H3.42c-0.94,0-1.8-0.38-2.42-1c-0.1-0.1-0.18-0.2-0.26-0.3 C0.28,17.77,0,17.04,0,16.24V3.42c0-0.93,0.38-1.78,1-2.4L1.02,1c0.62-0.62,1.47-1,2.4-1h56.07c0.94,0,1.79,0.38,2.4,1l0.01,0.01 L61.91,1c0.62,0.62,1,1.47,1,2.42v12.82c0,0.94-0.38,1.8-1,2.42c-0.1,0.1-0.21,0.19-0.33,0.28c-0.58,0.45-1.31,0.72-2.09,0.72H54.6 L54.6,19.66z M49.26,60.29h-7.45c-1.47,0-2.67-1.2-2.67-2.67c0-1.47,1.2-2.67,2.67-2.67h7.45v-7.58H35.93 c-1.47,0-2.67-1.2-2.67-2.67c0-1.47,1.2-2.67,2.67-2.67h13.32v-7.58h-7.45c-1.47,0-2.67-1.2-2.67-2.67c0-1.47,1.2-2.67,2.67-2.67 h7.45V16.99c0-1.47,1.2-2.67,2.67-2.67h5.64V5.34H5.34v8.98h5.64c1.47,0,2.67,1.2,2.67,2.67v82.75c0,4.89,2,9.34,5.23,12.57 c3.23,3.23,7.68,5.23,12.57,5.23s9.34-2,12.57-5.23c3.23-3.23,5.23-7.68,5.23-12.57V60.29L49.26,60.29z M43.68,68.62v28.84 c0,6.73-5.5,12.23-12.23,12.23l0,0c-6.73,0-12.23-5.5-12.23-12.23V68.62H43.68L43.68,68.62z"/></g>




</svg>